<?xml version="1.0" standalone="no"?>
<!DOCTYPE svg PUBLIC "-//W3C//DTD SVG 20010904//EN"
 "http://www.w3.org/TR/2001/REC-SVG-20010904/DTD/svg10.dtd">
<svg version="1.0" xmlns="http://www.w3.org/2000/svg"
 width="512.000000pt" height="512.000000pt" viewBox="0 0 512.000000 512.000000"
 preserveAspectRatio="xMidYMid meet">

<g transform="translate(0.000000,512.000000) scale(0.100000,-0.100000)"
fill="#000000" stroke="none">
<path d="M4553 4668 c-30 -35 -34 -53 -18 -105 8 -27 15 -48 15 -48 0 0 -42 0
-92 0 -200 0 -210 -8 -621 -470 -186 -209 -342 -381 -346 -383 -5 -2 -13 11
-19 27 -18 52 -72 121 -108 138 -32 16 -37 15 -141 -17 -201 -61 -414 -161
-591 -276 -45 -30 -84 -54 -86 -54 -2 0 -9 21 -15 48 -43 170 -179 354 -328
445 -78 47 -190 94 -246 102 -69 11 -72 15 -48 70 12 27 37 67 55 90 38 45
131 100 186 109 19 3 52 8 73 11 74 12 103 90 52 140 -29 30 -89 33 -179 10
-96 -25 -166 -65 -238 -137 l-68 -67 -57 60 c-94 99 -227 159 -348 159 -53 -1
-74 -11 -93 -47 -18 -33 -15 -59 10 -88 18 -21 37 -28 93 -36 92 -12 164 -49
219 -110 41 -45 86 -133 74 -144 -2 -3 -40 -14 -83 -25 -151 -39 -258 -103
-370 -222 -38 -40 -87 -103 -108 -138 -45 -78 -86 -202 -94 -287 -3 -35 -10
-63 -16 -63 -6 0 -24 11 -41 24 -90 68 -230 116 -341 116 -64 0 -69 -2 -99
-34 -74 -79 -150 -248 -182 -405 -21 -105 -15 -347 10 -426 9 -27 16 -55 16
-62 0 -8 -41 -12 -138 -15 -129 -3 -141 -5 -175 -28 -36 -25 -67 -80 -67 -120
0 -22 47 -138 115 -285 98 -210 227 -419 384 -620 170 -218 471 -495 699 -644
l82 -54 0 -91 c0 -74 4 -100 24 -142 27 -58 94 -120 145 -134 49 -13 2173 -13
2222 0 51 14 118 76 145 134 20 42 24 68 24 142 l0 91 82 54 c143 93 328 247
473 393 206 207 373 429 513 681 72 129 201 416 209 462 9 51 -29 117 -81 142
-38 19 -61 21 -240 21 l-198 0 28 48 c73 123 124 267 143 400 15 103 6 121
-77 158 -137 61 -319 86 -454 62 -43 -8 -78 -13 -78 -12 0 1 143 128 318 282
189 168 330 301 349 329 56 83 75 154 71 266 l-4 98 33 -6 c36 -7 87 14 97 40
12 32 6 82 -12 99 -11 9 -48 26 -83 38 -35 11 -66 22 -68 24 -2 2 35 44 82 94
76 78 87 94 87 125 0 47 -36 85 -82 85 -28 0 -46 -13 -124 -91 l-92 -91 -22
68 c-13 37 -33 78 -46 91 -31 31 -83 31 -111 1z m-2 -333 c59 -20 112 -65 147
-123 24 -41 27 -57 27 -132 0 -105 -17 -144 -95 -217 -56 -53 -853 -758 -881
-781 -14 -10 -35 -6 -122 23 -57 19 -132 38 -166 41 -33 4 -61 8 -61 9 0 1 15
36 34 76 19 41 40 96 46 122 9 35 31 68 88 132 l75 86 71 -70 c97 -96 130
-106 184 -58 15 14 22 32 22 56 0 31 -10 46 -81 117 l-82 82 84 95 84 96 66
-65 c58 -55 72 -64 103 -64 48 0 86 36 86 81 0 25 -13 45 -70 103 l-70 73 62
71 62 71 72 -69 c39 -38 82 -72 96 -75 54 -14 119 52 101 103 -3 9 -39 51 -80
93 l-74 76 26 17 c70 46 166 58 246 31z m-2591 -435 c81 -22 181 -82 250 -150
83 -82 143 -196 167 -317 l16 -82 -50 -58 c-78 -91 -120 -154 -162 -244 -56
-121 -76 -219 -75 -366 l1 -123 -52 0 -53 0 -32 58 c-64 113 -130 184 -240
256 -105 69 -192 97 -340 111 l-65 6 -50 76 c-61 94 -75 140 -75 265 -1 395
372 674 760 568z m1368 -361 c2 -37 -1 -91 -8 -120 -11 -52 -85 -214 -114
-252 -9 -11 -51 -27 -108 -42 -116 -29 -191 -62 -293 -130 -135 -89 -282 -263
-331 -390 l-17 -45 -83 0 c-48 0 -86 4 -89 11 -15 23 -8 224 9 289 26 96 79
199 146 284 136 172 449 371 746 476 l109 38 14 -26 c8 -15 16 -56 19 -93z
m-2523 -253 c109 -54 219 -157 323 -303 l22 -31 -65 -30 c-136 -64 -239 -158
-313 -284 l-45 -78 -82 0 -82 0 -22 73 c-65 221 -37 458 77 656 25 43 25 43
71 37 25 -3 78 -21 116 -40z m3720 -240 c82 -26 80 -22 50 -121 -35 -117 -66
-183 -128 -282 l-52 -83 -96 0 -95 0 -30 62 c-33 71 -118 194 -172 251 l-37
39 38 33 c48 41 147 91 223 110 73 18 228 14 299 -9z m-1033 -81 c140 -29 274
-103 380 -209 52 -53 120 -143 134 -180 6 -15 -59 -16 -680 -16 l-685 0 32 56
c69 117 183 222 312 286 51 26 161 64 205 71 60 10 240 5 302 -8z m-2007 -167
c60 -13 146 -55 200 -98 39 -31 115 -118 115 -132 0 -5 -196 -8 -435 -8 -239
0 -435 3 -435 8 0 14 75 101 115 133 62 49 175 98 252 108 71 9 105 7 188 -11z
m3439 -430 c-16 -52 -119 -269 -171 -362 -224 -399 -548 -749 -930 -1004 l-92
-62 -121 0 c-136 0 -175 -12 -187 -58 -11 -41 -5 -65 23 -90 23 -20 36 -22
125 -22 l99 0 0 -59 c0 -44 -5 -65 -21 -85 l-20 -26 -1069 0 -1069 0 -20 26
c-16 20 -21 41 -21 85 l0 59 528 0 c517 0 529 0 550 20 46 43 37 109 -18 137
-19 10 -155 13 -573 13 l-548 0 -92 62 c-385 258 -713 613 -934 1013 -56 102
-151 302 -167 353 l-7 22 2371 0 2371 0 -7 -22z"/>
<path d="M1669 3735 c-180 -66 -300 -220 -299 -384 1 -62 13 -85 54 -101 59
-22 116 30 116 109 0 37 42 121 76 153 36 33 110 67 147 68 15 0 43 6 61 14
57 24 68 105 18 142 -22 17 -126 17 -173 -1z"/>
<path d="M4484 2209 c-12 -6 -45 -54 -74 -108 -155 -287 -358 -515 -617 -692
-57 -38 -107 -78 -113 -89 -29 -54 11 -120 73 -120 81 0 378 238 544 435 162
193 321 457 308 514 -11 53 -74 84 -121 60z"/>
</g>
</svg>
